<mxfile host="65bd71144e">
    <diagram id="tiqTV8sNi-2QTtHdOjPc" name="Page-1">
        <mxGraphModel dx="635" dy="536" grid="1" gridSize="10" guides="1" tooltips="1" connect="1" arrows="1" fold="1" page="1" pageScale="1" pageWidth="827" pageHeight="1169" background="#FFFFFF" math="0" shadow="0">
            <root>
                <mxCell id="0"/>
                <mxCell id="1" parent="0"/>
                <mxCell id="2" value="Utente&lt;div&gt;&lt;font color=&quot;#000000&quot;&gt;&lt;br&gt;&lt;/font&gt;&lt;div&gt;&lt;br&gt;&lt;/div&gt;&lt;/div&gt;" style="shape=umlActor;html=1;verticalLabelPosition=bottom;verticalAlign=top;align=center;" parent="1" vertex="1">
                    <mxGeometry x="104" y="210" width="30" height="60" as="geometry"/>
                </mxCell>
                <mxCell id="4" value="Ricerca Nel Catalogo" style="ellipse;whiteSpace=wrap;html=1;" parent="1" vertex="1">
                    <mxGeometry x="284" y="260" width="140" height="70" as="geometry"/>
                </mxCell>
                <mxCell id="5" value="Registrazione&lt;div&gt;&lt;br&gt;&lt;/div&gt;" style="ellipse;whiteSpace=wrap;html=1;" parent="1" vertex="1">
                    <mxGeometry x="284" y="365" width="140" height="70" as="geometry"/>
                </mxCell>
                <mxCell id="6" value="Utente Non Registrato&lt;div&gt;&lt;br&gt;&lt;/div&gt;" style="shape=umlActor;html=1;verticalLabelPosition=bottom;verticalAlign=top;align=center;" parent="1" vertex="1">
                    <mxGeometry x="164" y="370" width="30" height="60" as="geometry"/>
                </mxCell>
                <mxCell id="15" value="" style="edgeStyle=none;html=1;endArrow=none;verticalAlign=bottom;entryX=0;entryY=0.5;entryDx=0;entryDy=0;exitX=0.5;exitY=0.5;exitDx=0;exitDy=0;exitPerimeter=0;" parent="1" source="2" target="3" edge="1">
                    <mxGeometry width="160" relative="1" as="geometry">
                        <mxPoint x="124" y="240" as="sourcePoint"/>
                        <mxPoint x="284" y="240" as="targetPoint"/>
                    </mxGeometry>
                </mxCell>
                <mxCell id="16" value="" style="edgeStyle=none;html=1;endArrow=none;verticalAlign=bottom;exitX=0.5;exitY=0.5;exitDx=0;exitDy=0;exitPerimeter=0;entryX=0;entryY=0.5;entryDx=0;entryDy=0;" parent="1" source="2" target="4" edge="1">
                    <mxGeometry width="160" relative="1" as="geometry">
                        <mxPoint x="124" y="240" as="sourcePoint"/>
                        <mxPoint x="284" y="282" as="targetPoint"/>
                    </mxGeometry>
                </mxCell>
                <mxCell id="17" value="" style="edgeStyle=none;html=1;endArrow=none;verticalAlign=bottom;exitX=0.5;exitY=0.5;exitDx=0;exitDy=0;exitPerimeter=0;entryX=0;entryY=0.5;entryDx=0;entryDy=0;" parent="1" source="6" target="5" edge="1">
                    <mxGeometry width="160" relative="1" as="geometry">
                        <mxPoint x="174" y="410" as="sourcePoint"/>
                        <mxPoint x="334" y="410" as="targetPoint"/>
                    </mxGeometry>
                </mxCell>
                <mxCell id="19" value="" style="edgeStyle=none;html=1;endArrow=block;endFill=0;endSize=12;verticalAlign=bottom;exitX=0.5;exitY=0;exitDx=0;exitDy=0;exitPerimeter=0;" parent="1" source="6" edge="1">
                    <mxGeometry width="160" relative="1" as="geometry">
                        <mxPoint x="4" y="370" as="sourcePoint"/>
                        <mxPoint x="124" y="310" as="targetPoint"/>
                        <Array as="points">
                            <mxPoint x="124" y="370"/>
                        </Array>
                    </mxGeometry>
                </mxCell>
                <mxCell id="22" value="Utente Registrato&lt;div&gt;&lt;br&gt;&lt;/div&gt;" style="shape=umlActor;html=1;verticalLabelPosition=bottom;verticalAlign=top;align=center;" parent="1" vertex="1">
                    <mxGeometry x="104" y="570" width="30" height="60" as="geometry"/>
                </mxCell>
                <mxCell id="31" value="Utente Premium&lt;div&gt;&lt;br&gt;&lt;/div&gt;" style="shape=umlActor;html=1;verticalLabelPosition=bottom;verticalAlign=top;align=center;" parent="1" vertex="1">
                    <mxGeometry x="150" y="705" width="30" height="60" as="geometry"/>
                </mxCell>
                <mxCell id="36" value="" style="edgeStyle=none;html=1;endArrow=none;verticalAlign=bottom;exitX=0.5;exitY=0.5;exitDx=0;exitDy=0;exitPerimeter=0;entryX=0.5;entryY=1;entryDx=0;entryDy=0;" parent="1" source="31" target="28" edge="1">
                    <mxGeometry width="160" relative="1" as="geometry">
                        <mxPoint x="174" y="739.17" as="sourcePoint"/>
                        <mxPoint x="334" y="739.17" as="targetPoint"/>
                    </mxGeometry>
                </mxCell>
                <mxCell id="39" value="" style="edgeStyle=none;html=1;endArrow=none;verticalAlign=bottom;exitX=0.5;exitY=0.5;exitDx=0;exitDy=0;exitPerimeter=0;entryX=0;entryY=0;entryDx=0;entryDy=0;" parent="1" source="22" target="27" edge="1">
                    <mxGeometry width="160" relative="1" as="geometry">
                        <mxPoint x="204" y="620" as="sourcePoint"/>
                        <mxPoint x="364" y="620" as="targetPoint"/>
                    </mxGeometry>
                </mxCell>
                <mxCell id="43" value="" style="edgeStyle=none;html=1;endArrow=block;endFill=0;endSize=12;verticalAlign=bottom;" parent="1" edge="1">
                    <mxGeometry width="160" relative="1" as="geometry">
                        <mxPoint x="104" y="580" as="sourcePoint"/>
                        <mxPoint x="84" y="310" as="targetPoint"/>
                        <Array as="points">
                            <mxPoint x="84" y="580"/>
                            <mxPoint x="84" y="440"/>
                        </Array>
                    </mxGeometry>
                </mxCell>
                <mxCell id="45" value="" style="edgeStyle=none;html=1;endArrow=none;verticalAlign=bottom;exitX=0.5;exitY=0.5;exitDx=0;exitDy=0;exitPerimeter=0;entryX=0;entryY=0.5;entryDx=0;entryDy=0;" parent="1" source="31" target="44" edge="1">
                    <mxGeometry width="160" relative="1" as="geometry">
                        <mxPoint x="314" y="760" as="sourcePoint"/>
                        <mxPoint x="454" y="760" as="targetPoint"/>
                    </mxGeometry>
                </mxCell>
                <mxCell id="48" value="" style="edgeStyle=none;html=1;endArrow=none;verticalAlign=bottom;entryX=0;entryY=1;entryDx=0;entryDy=0;exitX=0.5;exitY=0.5;exitDx=0;exitDy=0;exitPerimeter=0;" parent="1" source="22" target="47" edge="1">
                    <mxGeometry width="160" relative="1" as="geometry">
                        <mxPoint x="214" y="590" as="sourcePoint"/>
                        <mxPoint x="374" y="590" as="targetPoint"/>
                    </mxGeometry>
                </mxCell>
                <mxCell id="49" value="" style="edgeStyle=none;html=1;endArrow=none;verticalAlign=bottom;entryX=0.601;entryY=0.979;entryDx=0;entryDy=0;entryPerimeter=0;" parent="1" target="23" edge="1">
                    <mxGeometry width="160" relative="1" as="geometry">
                        <mxPoint x="124" y="600" as="sourcePoint"/>
                        <mxPoint x="284" y="600" as="targetPoint"/>
                    </mxGeometry>
                </mxCell>
                <mxCell id="50" value="Amministratore&lt;div&gt;&lt;br&gt;&lt;/div&gt;" style="shape=umlActor;html=1;verticalLabelPosition=bottom;verticalAlign=top;align=center;" parent="1" vertex="1">
                    <mxGeometry x="104" y="790" width="30" height="60" as="geometry"/>
                </mxCell>
                <mxCell id="53" value="" style="edgeStyle=none;html=1;endArrow=none;verticalAlign=bottom;exitX=0.5;exitY=0.5;exitDx=0;exitDy=0;exitPerimeter=0;entryX=0;entryY=0;entryDx=0;entryDy=0;" parent="1" source="50" target="51" edge="1">
                    <mxGeometry width="160" relative="1" as="geometry">
                        <mxPoint x="144" y="800" as="sourcePoint"/>
                        <mxPoint x="304" y="800" as="targetPoint"/>
                    </mxGeometry>
                </mxCell>
                <mxCell id="55" value="" style="edgeStyle=none;html=1;endArrow=none;verticalAlign=bottom;exitX=0.5;exitY=0.5;exitDx=0;exitDy=0;exitPerimeter=0;entryX=0;entryY=0;entryDx=0;entryDy=0;" parent="1" source="50" target="52" edge="1">
                    <mxGeometry width="160" relative="1" as="geometry">
                        <mxPoint x="114" y="890" as="sourcePoint"/>
                        <mxPoint x="274" y="890" as="targetPoint"/>
                    </mxGeometry>
                </mxCell>
                <mxCell id="58" value="" style="edgeStyle=none;html=1;endArrow=block;endFill=0;endSize=12;verticalAlign=bottom;exitX=0.5;exitY=0.5;exitDx=0;exitDy=0;exitPerimeter=0;" parent="1" source="50" edge="1">
                    <mxGeometry width="160" relative="1" as="geometry">
                        <mxPoint x="64" y="810" as="sourcePoint"/>
                        <mxPoint x="64" y="310" as="targetPoint"/>
                        <Array as="points">
                            <mxPoint x="64" y="820"/>
                        </Array>
                    </mxGeometry>
                </mxCell>
                <mxCell id="168" value="Segretaria&lt;div&gt;&lt;br&gt;&lt;/div&gt;" style="shape=umlActor;html=1;verticalLabelPosition=bottom;verticalAlign=top;align=center;" parent="1" vertex="1">
                    <mxGeometry x="94" y="920" width="30" height="60" as="geometry"/>
                </mxCell>
                <mxCell id="171" value="" style="edgeStyle=none;html=1;endArrow=block;endFill=0;endSize=12;verticalAlign=bottom;" parent="1" edge="1">
                    <mxGeometry width="160" relative="1" as="geometry">
                        <mxPoint x="104" y="950" as="sourcePoint"/>
                        <mxPoint x="34" y="310" as="targetPoint"/>
                        <Array as="points">
                            <mxPoint x="34" y="950"/>
                            <mxPoint x="34" y="480"/>
                            <mxPoint x="34" y="390"/>
                        </Array>
                    </mxGeometry>
                </mxCell>
                <mxCell id="176" value="&lt;div&gt;&lt;br&gt;&lt;/div&gt;Facebook" style="shape=rect;html=1;verticalAlign=top;fontStyle=1;whiteSpace=wrap;align=center;" parent="1" vertex="1">
                    <mxGeometry x="740" y="410" width="120" height="60" as="geometry"/>
                </mxCell>
                <mxCell id="177" value="&lt;div&gt;&lt;br&gt;&lt;/div&gt;Google" style="shape=rect;html=1;verticalAlign=top;fontStyle=1;whiteSpace=wrap;align=center;" parent="1" vertex="1">
                    <mxGeometry x="740" y="310" width="120" height="60" as="geometry"/>
                </mxCell>
                <mxCell id="183" value="&amp;lt;&amp;lt;extend&amp;gt;&amp;gt;" style="edgeStyle=none;html=1;startArrow=open;endArrow=none;startSize=12;verticalAlign=bottom;dashed=1;labelBackgroundColor=none;exitX=1;exitY=0;exitDx=0;exitDy=0;entryX=0.5;entryY=1;entryDx=0;entryDy=0;" parent="1" source="5" target="182" edge="1">
                    <mxGeometry x="-0.3171" y="15" width="160" relative="1" as="geometry">
                        <mxPoint x="434" y="340" as="sourcePoint"/>
                        <mxPoint x="594" y="340" as="targetPoint"/>
                        <Array as="points">
                            <mxPoint x="564" y="330"/>
                        </Array>
                        <mxPoint x="1" as="offset"/>
                    </mxGeometry>
                </mxCell>
                <mxCell id="184" value="&lt;div&gt;&lt;br&gt;&lt;/div&gt;PayPal" style="shape=rect;html=1;verticalAlign=top;fontStyle=1;whiteSpace=wrap;align=center;" parent="1" vertex="1">
                    <mxGeometry x="740" y="160" width="120" height="60" as="geometry"/>
                </mxCell>
                <mxCell id="185" value="&lt;div&gt;&lt;br&gt;&lt;/div&gt;Carta di Credito" style="shape=rect;html=1;verticalAlign=top;fontStyle=1;whiteSpace=wrap;align=center;" parent="1" vertex="1">
                    <mxGeometry x="740" y="230" width="120" height="60" as="geometry"/>
                </mxCell>
                <mxCell id="186" value="" style="edgeStyle=none;html=1;endArrow=none;verticalAlign=bottom;entryX=0;entryY=0.75;entryDx=0;entryDy=0;" parent="1" source="182" target="184" edge="1">
                    <mxGeometry width="160" relative="1" as="geometry">
                        <mxPoint x="604" y="200" as="sourcePoint"/>
                        <mxPoint x="744" y="170" as="targetPoint"/>
                    </mxGeometry>
                </mxCell>
                <mxCell id="187" value="" style="edgeStyle=none;html=1;endArrow=none;verticalAlign=bottom;entryX=0;entryY=0.5;entryDx=0;entryDy=0;exitX=0.979;exitY=0.373;exitDx=0;exitDy=0;exitPerimeter=0;" parent="1" source="182" target="185" edge="1">
                    <mxGeometry width="160" relative="1" as="geometry">
                        <mxPoint x="634" y="240" as="sourcePoint"/>
                        <mxPoint x="674" y="240" as="targetPoint"/>
                    </mxGeometry>
                </mxCell>
                <mxCell id="190" value="" style="edgeStyle=none;html=1;endArrow=none;verticalAlign=bottom;entryX=0;entryY=0;entryDx=0;entryDy=0;" parent="1" target="189" edge="1">
                    <mxGeometry width="160" relative="1" as="geometry">
                        <mxPoint x="114" y="950" as="sourcePoint"/>
                        <mxPoint x="274" y="950" as="targetPoint"/>
                    </mxGeometry>
                </mxCell>
                <mxCell id="192" value="" style="edgeStyle=none;html=1;endArrow=block;endFill=0;endSize=12;verticalAlign=bottom;exitX=0.5;exitY=0;exitDx=0;exitDy=0;exitPerimeter=0;" parent="1" edge="1">
                    <mxGeometry width="160" relative="1" as="geometry">
                        <mxPoint x="164" y="720" as="sourcePoint"/>
                        <mxPoint x="109" y="660" as="targetPoint"/>
                        <Array as="points">
                            <mxPoint x="109" y="720"/>
                        </Array>
                    </mxGeometry>
                </mxCell>
                <mxCell id="200" value="" style="swimlane;startSize=0;shadow=0;strokeColor=#4D4D4D;" parent="1" vertex="1">
                    <mxGeometry x="240" y="140" width="480" height="960" as="geometry"/>
                </mxCell>
                <mxCell id="23" value="&lt;div&gt;Login&lt;/div&gt;&lt;div&gt;&lt;br&gt;&lt;/div&gt;" style="ellipse;whiteSpace=wrap;html=1;" parent="200" vertex="1">
                    <mxGeometry x="20" y="315" width="140" height="70" as="geometry"/>
                </mxCell>
                <mxCell id="28" value="Visualizzazione&amp;nbsp;&lt;div&gt;Premium&lt;/div&gt;&lt;div&gt;&lt;br&gt;&lt;/div&gt;" style="ellipse;whiteSpace=wrap;html=1;" parent="200" vertex="1">
                    <mxGeometry x="334" y="490" width="140" height="70" as="geometry"/>
                </mxCell>
                <mxCell id="27" value="Visualizzazione&amp;nbsp;&lt;div&gt;Base&lt;/div&gt;&lt;div&gt;&lt;br&gt;&lt;/div&gt;" style="ellipse;whiteSpace=wrap;html=1;" parent="200" vertex="1">
                    <mxGeometry x="170" y="495" width="140" height="70" as="geometry"/>
                </mxCell>
                <mxCell id="26" value="Visualizzazione&amp;nbsp;" style="ellipse;whiteSpace=wrap;html=1;" parent="200" vertex="1">
                    <mxGeometry x="254" y="385" width="140" height="70" as="geometry"/>
                </mxCell>
                <mxCell id="29" value="" style="edgeStyle=none;html=1;endArrow=block;endFill=0;endSize=12;verticalAlign=bottom;exitX=0.5;exitY=0;exitDx=0;exitDy=0;entryX=0.365;entryY=0.969;entryDx=0;entryDy=0;entryPerimeter=0;" parent="200" source="27" target="26" edge="1">
                    <mxGeometry width="160" relative="1" as="geometry">
                        <mxPoint x="304" y="310" as="sourcePoint"/>
                        <mxPoint x="490" y="310" as="targetPoint"/>
                    </mxGeometry>
                </mxCell>
                <mxCell id="30" value="" style="edgeStyle=none;html=1;endArrow=block;endFill=0;endSize=12;verticalAlign=bottom;exitX=0.5;exitY=0;exitDx=0;exitDy=0;entryX=0.62;entryY=0.969;entryDx=0;entryDy=0;entryPerimeter=0;" parent="200" source="28" target="26" edge="1">
                    <mxGeometry width="160" relative="1" as="geometry">
                        <mxPoint x="460" y="315" as="sourcePoint"/>
                        <mxPoint x="470" y="340" as="targetPoint"/>
                    </mxGeometry>
                </mxCell>
                <mxCell id="189" value="&lt;span style=&quot;color: rgb(0, 0, 0);&quot;&gt;Analisi e Reportistica Pagamenti&lt;/span&gt;" style="ellipse;whiteSpace=wrap;html=1;" parent="200" vertex="1">
                    <mxGeometry x="104" y="870" width="140" height="70" as="geometry"/>
                </mxCell>
                <mxCell id="52" value="&lt;span style=&quot;color: rgb(0, 0, 0);&quot;&gt;Rimozione film/serie TV&lt;/span&gt;" style="ellipse;whiteSpace=wrap;html=1;" parent="200" vertex="1">
                    <mxGeometry x="104" y="790" width="140" height="70" as="geometry"/>
                </mxCell>
                <mxCell id="51" value="Aggiunta film/serie TV" style="ellipse;whiteSpace=wrap;html=1;" parent="200" vertex="1">
                    <mxGeometry x="104" y="700" width="140" height="70" as="geometry"/>
                </mxCell>
                <mxCell id="44" value="Download&lt;div&gt;&lt;br&gt;&lt;/div&gt;" style="ellipse;whiteSpace=wrap;html=1;" parent="200" vertex="1">
                    <mxGeometry x="103" y="610" width="140" height="70" as="geometry"/>
                </mxCell>
                <mxCell id="3" value="Sfogliare Catalogo" style="ellipse;whiteSpace=wrap;html=1;" parent="200" vertex="1">
                    <mxGeometry x="50" y="40" width="140" height="70" as="geometry"/>
                </mxCell>
                <mxCell id="182" value="Pagamento Abbonamento" style="ellipse;whiteSpace=wrap;html=1;" parent="200" vertex="1">
                    <mxGeometry x="254" y="100" width="140" height="70" as="geometry"/>
                </mxCell>
                <mxCell id="202" value="Piattaforma Streaming&lt;div&gt;&lt;br&gt;&lt;/div&gt;" style="text;strokeColor=none;fillColor=none;html=1;fontSize=24;fontStyle=1;verticalAlign=middle;align=center;" parent="200" vertex="1">
                    <mxGeometry x="200" y="10" width="100" height="40" as="geometry"/>
                </mxCell>
                <mxCell id="47" value="Cancellazione Registrazione" style="ellipse;whiteSpace=wrap;html=1;" parent="200" vertex="1">
                    <mxGeometry x="90" y="400" width="140" height="70" as="geometry"/>
                </mxCell>
                <mxCell id="206" value="" style="edgeStyle=none;html=1;endArrow=none;verticalAlign=bottom;exitX=1;exitY=0.5;exitDx=0;exitDy=0;entryX=0;entryY=0.5;entryDx=0;entryDy=0;" edge="1" parent="1" source="5" target="177">
                    <mxGeometry width="160" relative="1" as="geometry">
                        <mxPoint x="430" y="400" as="sourcePoint"/>
                        <mxPoint x="500" y="400" as="targetPoint"/>
                    </mxGeometry>
                </mxCell>
                <mxCell id="210" value="" style="edgeStyle=none;html=1;endArrow=none;verticalAlign=bottom;exitX=0.957;exitY=0.349;exitDx=0;exitDy=0;exitPerimeter=0;entryX=0;entryY=0.25;entryDx=0;entryDy=0;" edge="1" parent="1" source="23" target="176">
                    <mxGeometry width="160" relative="1" as="geometry">
                        <mxPoint x="414" y="480" as="sourcePoint"/>
                        <mxPoint x="505.03999999999996" y="412.43000000000006" as="targetPoint"/>
                    </mxGeometry>
                </mxCell>
                <mxCell id="213" value="" style="edgeStyle=none;html=1;endArrow=none;verticalAlign=bottom;exitX=1;exitY=0;exitDx=0;exitDy=0;entryX=0.25;entryY=1;entryDx=0;entryDy=0;" edge="1" parent="1" source="23" target="177">
                    <mxGeometry width="160" relative="1" as="geometry">
                        <mxPoint x="404" y="489" as="sourcePoint"/>
                        <mxPoint x="750" y="465" as="targetPoint"/>
                    </mxGeometry>
                </mxCell>
                <mxCell id="215" value="" style="edgeStyle=none;html=1;endArrow=none;verticalAlign=bottom;exitX=1;exitY=0.5;exitDx=0;exitDy=0;" edge="1" parent="1" source="5">
                    <mxGeometry width="160" relative="1" as="geometry">
                        <mxPoint x="404" y="489" as="sourcePoint"/>
                        <mxPoint x="740" y="460" as="targetPoint"/>
                    </mxGeometry>
                </mxCell>
            </root>
        </mxGraphModel>
    </diagram>
</mxfile>